<?xml version="1.0" standalone="no"?>
<!DOCTYPE svg PUBLIC "-//W3C//DTD SVG 20010904//EN"
 "http://www.w3.org/TR/2001/REC-SVG-20010904/DTD/svg10.dtd">
<svg version="1.0" xmlns="http://www.w3.org/2000/svg"
 width="512.000000pt" height="512.000000pt" viewBox="0 0 512.000000 512.000000"
 preserveAspectRatio="xMidYMid meet">

<g transform="translate(0.000000,512.000000) scale(0.100000,-0.100000)"
fill="#000000" stroke="none">
<path d="M2265 4845 c-663 -87 -1253 -456 -1630 -1020 -139 -209 -271 -520
-325 -770 -50 -234 -65 -543 -36 -775 84 -673 453 -1267 1021 -1645 211 -140
520 -271 765 -324 243 -52 553 -66 787 -36 407 54 774 203 1103 448 122 91
356 325 447 447 307 411 463 881 463 1390 0 607 -225 1164 -644 1598 -371 383
-848 622 -1376 688 -140 17 -438 17 -575 -1z m779 -1614 c255 -170 471 -320
480 -332 14 -20 16 -65 16 -339 0 -274 -2 -319 -16 -339 -22 -31 -939 -641
-964 -641 -25 0 -942 610 -964 641 -24 35 -24 643 0 678 22 31 939 641 964
641 11 0 228 -139 484 -309z"/>
<path d="M2141 3074 l-323 -216 147 -98 148 -99 181 122 181 122 3 193 c1 105
-1 192 -5 192 -5 0 -154 -97 -332 -216z"/>
<path d="M2642 3099 l3 -194 181 -122 181 -122 148 99 147 98 -317 212 c-174
116 -323 214 -331 217 -12 4 -14 -23 -12 -188z"/>
<path d="M2413 2662 c-79 -53 -143 -99 -142 -102 0 -3 65 -49 144 -103 l145
-98 144 98 c80 54 145 100 145 103 1 5 -285 200 -291 200 -2 -1 -67 -45 -145
-98z"/>
<path d="M1750 2560 l0 -140 100 66 c55 37 100 70 100 74 0 4 -45 37 -100 74
l-100 66 0 -140z"/>
<path d="M3270 2634 c-52 -35 -96 -68 -98 -72 -1 -5 43 -39 98 -75 l100 -67 0
140 c0 77 -1 140 -2 139 -2 0 -46 -29 -98 -65z"/>
<path d="M1965 2360 l-147 -98 317 -212 c174 -116 323 -214 331 -217 12 -4 14
23 12 188 l-3 194 -181 122 -181 122 -148 -99z"/>
<path d="M2825 2337 l-180 -122 -3 -194 c-2 -165 0 -192 12 -188 8 3 157 101
331 217 l317 212 -123 82 c-68 45 -135 90 -149 98 -25 16 -28 14 -205 -105z"/>
</g>
</svg>
