<?xml version="1.0" standalone="no"?>
<!DOCTYPE svg PUBLIC "-//W3C//DTD SVG 20010904//EN"
 "http://www.w3.org/TR/2001/REC-SVG-20010904/DTD/svg10.dtd">
<svg version="1.0" xmlns="http://www.w3.org/2000/svg"
 width="442.000000pt" height="565.000000pt" viewBox="0 0 442.000000 565.000000"
 preserveAspectRatio="xMidYMid meet">

<g transform="translate(0.000000,565.000000) scale(0.100000,-0.100000)"
fill="#000000" stroke="none">
<path d="M1160 5425 c-195 -39 -390 -161 -505 -314 -120 -159 -177 -306 -191
-489 -11 -155 34 -342 115 -479 144 -243 364 -392 640 -434 l84 -13 -99 -17
c-218 -39 -339 -101 -484 -249 -149 -152 -227 -311 -251 -513 -47 -397 209
-796 588 -917 51 -16 118 -33 150 -37 32 -4 269 -8 526 -10 l468 -4 0 418 c1
230 0 443 -1 473 -4 71 -4 -30 5 1378 l8 1222 -494 -1 c-364 -1 -511 -4 -559
-14z"/>
</g>
</svg>
