<?xml version="1.0" standalone="no"?>
<!DOCTYPE svg PUBLIC "-//W3C//DTD SVG 20010904//EN"
 "http://www.w3.org/TR/2001/REC-SVG-20010904/DTD/svg10.dtd">
<svg version="1.0" xmlns="http://www.w3.org/2000/svg"
 width="611.000000pt" height="408.000000pt" viewBox="0 0 611.000000 408.000000"
 preserveAspectRatio="xMidYMid meet">

<g transform="translate(0.000000,408.000000) scale(0.100000,-0.100000)"
fill="#000000" stroke="none">
<path d="M2179 3753 c-27 -73 -49 -194 -49 -278 0 -80 11 -139 45 -252 5 -17
-5 -36 -46 -85 -114 -137 -157 -295 -174 -643 -19 -372 99 -651 351 -831 125
-89 321 -166 497 -194 73 -12 90 -21 67 -35 -34 -21 -100 -217 -100 -296 0
-38 -1 -39 -57 -56 -82 -25 -268 -25 -343 1 -124 41 -221 122 -305 251 -105
161 -221 235 -370 235 -94 0 -97 -25 -12 -89 30 -22 68 -57 84 -78 51 -64 138
-203 187 -298 74 -145 161 -235 288 -300 105 -52 196 -69 352 -62 72 3 141 9
154 12 l22 7 0 -236 0 -236 461 0 460 0 -3 462 -4 463 -27 81 c-15 45 -38 98
-52 119 -14 20 -25 38 -23 40 2 1 46 10 98 19 360 67 621 248 744 518 70 153
92 317 76 573 -20 310 -62 447 -178 583 l-45 52 24 78 c34 109 34 290 0 410
-13 45 -27 84 -31 87 -13 8 -113 -26 -169 -58 -66 -37 -178 -141 -239 -222
-25 -33 -47 -62 -49 -64 -1 -2 -11 3 -20 11 -57 50 -191 83 -398 98 -300 23
-604 -14 -709 -85 -20 -14 -38 -25 -40 -25 -2 0 -15 18 -29 39 -82 123 -245
257 -355 291 -35 11 -66 20 -68 20 -3 0 -9 -12 -15 -27z"/>
</g>
</svg>
